<?xml version="1.0" encoding="UTF-8"?>
<!DOCTYPE svg PUBLIC "-//W3C//DTD SVG 1.1//EN" "http://www.w3.org/Graphics/SVG/1.1/DTD/svg11.dtd">
<svg xmlns="http://www.w3.org/2000/svg" version="1.1" width="500px" height="500px" style="shape-rendering:geometricPrecision; text-rendering:geometricPrecision; image-rendering:optimizeQuality; fill-rule:evenodd; clip-rule:evenodd" xmlns:xlink="http://www.w3.org/1999/xlink">
<g><path style="opacity:1" fill="#fefefe" d="M -0.5,-0.5 C 166.167,-0.5 332.833,-0.5 499.5,-0.5C 499.5,166.167 499.5,332.833 499.5,499.5C 332.833,499.5 166.167,499.5 -0.5,499.5C -0.5,332.833 -0.5,166.167 -0.5,-0.5 Z"/></g>
<g><path style="opacity:1" fill="#a65977" d="M 200.5,207.5 C 199.513,202.695 199.179,197.695 199.5,192.5C 184.167,192.5 168.833,192.5 153.5,192.5C 153.5,199.167 153.5,205.833 153.5,212.5C 152.509,205.687 152.175,198.687 152.5,191.5C 168.5,191.5 184.5,191.5 200.5,191.5C 200.5,196.833 200.5,202.167 200.5,207.5 Z"/></g>
<g><path style="opacity:1" fill="#841b44" d="M 200.5,207.5 C 207.167,207.5 213.833,207.5 220.5,207.5C 220.335,210.518 220.502,213.518 221,216.5C 222.833,212 226,208.833 230.5,207C 239.136,207.298 247.803,207.464 256.5,207.5C 256.333,231.502 256.5,255.502 257,279.5C 259.477,284.368 262.477,284.701 266,280.5C 266.5,256.169 266.667,231.836 266.5,207.5C 273.833,207.5 281.167,207.5 288.5,207.5C 288.5,238.167 288.5,268.833 288.5,299.5C 281.167,299.5 273.833,299.5 266.5,299.5C 266.664,296.813 266.497,294.146 266,291.5C 264.5,295.667 261.667,298.5 257.5,300C 243.45,302.486 236.117,296.653 235.5,282.5C 235.5,263.167 235.5,243.833 235.5,224.5C 233.585,224.216 231.919,224.549 230.5,225.5C 227.101,225.807 223.934,226.807 221,228.5C 220.5,252.164 220.333,275.831 220.5,299.5C 213.167,299.5 205.833,299.5 198.5,299.5C 198.5,270.5 198.5,241.5 198.5,212.5C 194.833,212.5 191.167,212.5 187.5,212.5C 187.5,241.5 187.5,270.5 187.5,299.5C 180.167,299.5 172.833,299.5 165.5,299.5C 165.5,270.5 165.5,241.5 165.5,212.5C 161.5,212.5 157.5,212.5 153.5,212.5C 153.5,205.833 153.5,199.167 153.5,192.5C 168.833,192.5 184.167,192.5 199.5,192.5C 199.179,197.695 199.513,202.695 200.5,207.5 Z"/></g>
<g><path style="opacity:1" fill="#841c45" d="M 290.5,277.5 C 289.195,260.481 289.195,243.481 290.5,226.5C 292.061,217.103 297.394,210.937 306.5,208C 317.079,205.088 327.079,206.422 336.5,212C 339.293,215.081 341.46,218.581 343,222.5C 343.5,233.495 343.667,244.495 343.5,255.5C 332.833,255.5 322.167,255.5 311.5,255.5C 311.334,263.174 311.5,270.841 312,278.5C 313.594,283.752 316.594,284.752 321,281.5C 322.361,275.593 322.861,269.593 322.5,263.5C 329.5,263.5 336.5,263.5 343.5,263.5C 343.5,267.833 343.5,272.167 343.5,276.5C 356.821,274.656 362.655,280.323 361,293.5C 357.345,300.738 351.512,303.238 343.5,301C 340.689,299.356 338.356,297.19 336.5,294.5C 325.759,300.984 314.425,302.151 302.5,298C 295.036,293.245 291.036,286.412 290.5,277.5 Z"/></g>
<g><path style="opacity:1" fill="#e2c9d4" d="M 288.5,207.5 C 289.167,213.833 289.833,220.167 290.5,226.5C 289.195,243.481 289.195,260.481 290.5,277.5C 289.833,284.833 289.167,292.167 288.5,299.5C 288.5,268.833 288.5,238.167 288.5,207.5 Z"/></g>
<g><path style="opacity:1" fill="#f8f3f5" d="M 314.5,223.5 C 317.044,223.104 319.211,223.771 321,225.5C 322.37,231.742 322.87,238.075 322.5,244.5C 318.833,244.5 315.167,244.5 311.5,244.5C 311.334,238.824 311.501,233.157 312,227.5C 312.662,226.016 313.496,224.683 314.5,223.5 Z"/></g>
<g><path style="opacity:1" fill="#973f62" d="M 230.5,225.5 C 231.919,224.549 233.585,224.216 235.5,224.5C 235.5,243.833 235.5,263.167 235.5,282.5C 234.503,263.674 234.17,244.674 234.5,225.5C 233.167,225.5 231.833,225.5 230.5,225.5 Z"/></g>
</svg>
